# xmcd
#
# Track frame offsets:
#	182
#	12582
#	26882
#	40732
#	57882
#	70620
#	84932
#	101745
#
# Disc length: 1650
#
# Revision: 1
# Processed by: cddbd v1.5.1PL0 Copyright (c) Steve Scherf et al.
# Submitted via: CDex 1.40Release
# Normalized: r0:DSETVAR1,TDELIM( - )
#
DISCID=5f067008
DTITLE=Various Artist - Pepsi Country Music Compilation
DYEAR=2002
DGENRE=Country
TTITLE0=Neal Mccoy - Wink
TTITLE1=Bryan White - Sittin' On Go
TTITLE2=Michael Peterson - Drink, Swear, Steal And Life
TTITLE3=Claudia Church - What's The Matter With You Boy
TTITLE4=Confederate Railroad - She Took It Like A Man
TTITLE5=Anita Cochran - I Could Love A Man Like That
TTITLE6=Lila Mccann - When You Walked Into My Life
TTITLE7=Travis Tritt - Lord Have Mercy On The Working Man
EXTD=YEAR: 2002 ID3G: 2
EXTT0=
EXTT1=
EXTT2=
EXTT3=
EXTT4=
EXTT5=
EXTT6=
EXTT7=
PLAYORDER=
